<svg width="80" height="43" viewBox="0 0 80 43" fill="none" xmlns="http://www.w3.org/2000/svg">
<path d="M75.7655 17.5647C75.5059 19.5078 73.5611 20.8287 71.6608 20.5278C71.8156 20.541 71.9673 20.5542 72.1188 20.5674C72.2628 20.5612 72.409 20.5546 72.5525 20.5449C50.4897 23.557 28.3536 25.4352 6.07633 25.5388C4.02678 25.941 1.45007 25.6538 0.441734 23.5639C-0.800479 21.3662 0.717533 18.4692 3.24504 18.2619C5.79573 18.5468 8.3314 18.3516 10.9304 18.2691C19.7062 17.9828 28.4852 17.9863 37.2447 17.3705C45.9685 16.7053 54.6185 15.3439 63.3233 14.5043C67.384 14.5928 75.8818 10.78 75.7655 17.5647Z" fill="#005EDE"/>
<path d="M80 19.5494C77.5936 27.0063 70.0757 31.8565 64.1118 36.492C60.7661 38.5552 57.7921 42.0239 53.7581 42.5393C50.6304 42.5351 48.9183 38.4955 51.2322 36.3464C59.0059 31.9005 66.9398 26.5022 72.4529 19.2204C66.132 14.9723 59.3457 11.3848 53.5569 6.35045C49.9776 3.42217 54.3393 -2.05698 57.9979 0.802288C60.1369 2.50683 62.3253 4.14263 64.5219 5.77283C69.3412 10.0378 79.7382 12.1193 80 19.5494Z" fill="#005EDE"/>
</svg>
